<?xml version="1.0" encoding="UTF-8"?>
<svg width="178px" height="173px" viewBox="0 0 178 173" version="1.1" xmlns="http://www.w3.org/2000/svg" xmlns:xlink="http://www.w3.org/1999/xlink">
    <!-- Generator: Sketch 58 (84663) - https://sketch.com -->
    <title>编组</title>
    <desc>Created with Sketch.</desc>
    <g id="页面1" stroke="none" stroke-width="1" fill="none" fill-rule="evenodd">
        <g id="目录-赠送课程" transform="translate(-918.000000, -130.000000)">
            <g id="编组" transform="translate(918.000000, 130.000000)">
                <rect id="Rectangle" fill-opacity="0.201907835" fill="#509E68" fill-rule="nonzero" x="0" y="156" width="178" height="17" rx="7"></rect>
                <path d="M17.614055,146.165205 C17.614055,142.904202 20.25762,140.260637 23.5186227,140.260637 L165.427568,140.260637 C168.560529,140.260637 171.100295,142.800404 171.100295,145.933365 L171.100295,157.939608 L171.100295,157.939608 L176,162.397142 L176,142.090909 C176,138.174708 172.825292,135 168.909091,135 C168.896064,135 168.883036,135.000036 168.870009,135.000108 L8.46219262,135.884217 C3.78112716,135.910017 1.20308295e-15,139.712042 0,144.393179 L0,166.069773 L0,166.069773 L42.886008,152.069773 L23.5186227,152.069773 C20.25762,152.069773 17.614055,149.426208 17.614055,146.165205 Z" id="Path-2" fill="#FF8800" fill-rule="nonzero" transform="translate(88.000000, 150.534886) scale(1, -1) translate(-88.000000, -150.534886) "></path>
                <path d="M14,149 L94,149 L94,149 L172,142.123705 L172,155.327273 C172,158.460233 169.460233,161 166.327273,161 L14,161 C10.6862915,161 8,158.313708 8,155 C8,151.686292 10.6862915,149 14,149 Z" id="Rectangle" fill="#FFF3DF" fill-rule="nonzero"></path>
                <g id="Group-18" transform="translate(2.000000, 2.000000)" fill="#FFD884" fill-rule="nonzero" stroke="#FF8800" stroke-width="4">
                    <g id="Rectangle-3">
                        <rect id="Rectangle" x="0" y="0" width="173" height="146" rx="14"></rect>
                    </g>
                </g>
                <path d="M40.4296875,45.8828125 L41.6796875,45.8828125 L41.6796875,44.3984375 L40.4296875,44.3984375 L40.4296875,45.8828125 Z M51.1774554,45.8828125 L51.25,45.8828125 L51.25,44.3984375 L51.1774554,44.3984375 L51.1147837,45.2758413 L53.0078125,45.140625 L51.1147837,45.0054087 L51.1774554,45.8828125 Z M51.1147837,45.2758413 L51.0718824,45.8764592 C50.9253534,45.8659929 50.5246321,45.4652716 50.5141658,45.3187426 L51.1147837,45.2758413 Z M51.1147837,45.0054087 L50.5141658,44.9625074 C50.5246321,44.8159784 50.9253534,44.4152571 51.0718824,44.4047908 L51.1147837,45.0054087 Z M40.4296875,54.2421875 L40.4296875,55.609375 L41.6796875,55.609375 L41.6796875,54.2421875 L40.4296875,54.2421875 Z M50.8804087,55.0024038 L50.8375074,55.6030217 C50.6909784,55.5925554 50.2902571,55.1918341 50.2797908,55.0453051 L50.8804087,55.0024038 Z M50.872645,54.740468 L50.2789746,54.70089 C50.281821,54.6581946 50.653553,54.2616803 50.8375074,54.2485408 L50.872645,54.740468 Z M40.4296875,65.375 L40.4296875,66.859375 L41.6796875,66.859375 L41.6796875,65.375 L40.4296875,65.375 Z M51.8359375,66.3064904 L51.8359375,65.8671875 L51.7358614,65.8605158 L51.7047847,66.3266677 L51.8359375,66.3064904 Z M51.8359375,65.8671875 L51.8359375,65.39456 C51.8560357,65.3871907 51.8749412,65.3825857 51.8921949,65.3813533 L51.9273325,65.8732805 L51.8359375,65.8671875 Z M51.8359375,65.39456 L51.8359375,65.375 L51.7682292,65.375 L51.7646408,65.4288255 C51.7894704,65.4145111 51.8134504,65.4028053 51.8359375,65.39456 Z M51.7646408,65.4288255 L51.7358614,65.8605158 L51.3336621,65.8337025 C51.3359428,65.7994921 51.5750578,65.5381208 51.7646408,65.4288255 Z M51.7047847,66.3266677 L51.6733674,66.7979268 C51.6591764,66.7867105 51.6424896,66.7734849 51.6236244,66.7579488 C51.4561571,66.6200346 51.3683797,66.4528388 51.3571958,66.380143 L51.7047847,66.3266677 Z M51.6733674,66.7979268 L51.66964,66.8538379 C51.7521372,66.8593377 51.7416137,66.8518676 51.6733674,66.7979268 Z M51.9569463,66.2878736 L52.0703125,66.2704327 L52.0703125,65.8828125 L51.9273325,65.8732805 L51.9569463,66.2878736 Z M33.0078125,65.375 L31.640625,65.375 L31.640625,66.859375 L33.0078125,66.859375 L33.0078125,65.375 Z M28.2992788,66.1171875 L28.3558037,65.3823638 C28.6797682,65.4072841 29.140625,65.939042 29.140625,66.1171875 C29.140625,66.295333 28.6797682,66.8270909 28.3558037,66.8520112 L28.2992788,66.1171875 Z M33.0078125,51.8911133 L33.0078125,51.8203125 L31.640625,51.8203125 L31.640625,51.9144105 C31.6423895,51.9326443 31.644056,51.9532581 31.6454936,51.9762582 L31.7139611,51.971979 C31.6702008,51.9125227 31.6414629,51.8581592 31.6262118,51.8157456 C31.6312482,51.8394827 31.6347716,51.8611216 31.6381636,51.8909594 L32.5240259,51.9463258 L32.3828125,49.828125 L32.2319927,51.939602 L33.0078125,51.8911133 Z M32.5240259,51.9463258 L32.9630613,51.9737655 C32.9401686,52.0014897 32.905795,52.0449006 32.8556542,52.0981752 C32.7015443,52.261917 32.5557232,52.322147 32.54911,52.3225879 L32.5240259,51.9463258 Z M32.9630613,51.9737655 L33.0029439,51.9762582 C33.0061009,51.9257468 32.9977984,51.9316971 32.9630613,51.9737655 Z M32.2319927,51.939602 L32.2046949,52.3217717 C32.1322075,52.3165941 31.9369605,52.2303227 31.7679854,52.0388175 C31.7479242,52.0160815 31.729941,51.9936907 31.7139611,51.971979 L32.2319927,51.939602 Z M28.8950276,45.0130784 L28.9417412,44.4058013 C29.1956601,44.4253335 29.5952316,44.8534459 29.6030217,44.9625074 L28.8950276,45.0130784 Z M28.8950276,45.2681716 L29.6030217,45.3187426 C29.5952316,45.4278041 29.1956601,45.8559165 28.9417412,45.8754487 L28.8950276,45.2681716 Z M45.4296875,49.3984375 L45.4296875,50.609375 L51.015625,50.609375 L51.1937426,50.6157283 C53.5277825,50.7824454 55.1003671,52.35503 55.2670842,54.6890699 L55.2793828,54.8612493 L55.2679004,55.033485 C55.1088033,57.4199422 53.5652079,59.0664439 51.1937426,59.2358342 L51.015625,59.2421875 L45.4296875,59.2421875 L45.4296875,61.859375 L51.8359375,61.859375 L52.002235,61.8649121 C54.2914815,62.0175285 55.9557012,63.3880624 56.2990542,65.619857 L56.3408889,65.8917823 L56.3225879,66.1662975 C56.1634908,68.5527547 54.6198954,70.1992564 52.2484301,70.3686467 L52.0703125,70.375 L28.1640625,70.375 L27.9723213,70.3676362 C25.6170967,70.1864651 24.140625,68.4828439 24.140625,66.1171875 C24.140625,63.7515311 25.6170967,62.0479099 27.9723213,61.8667388 L28.0078125,61.8653758 L28.0078125,51.8203125 L28.0126811,51.6643668 C28.0665362,50.8026852 28.2946891,50.0359016 28.6729262,49.3954775 L28.5582588,49.3910737 C26.2730798,49.2152907 24.7797691,47.615315 24.6157283,45.3187426 L24.6030056,45.140625 L24.6157283,44.9625074 C24.7797691,42.665935 26.2730798,41.0659593 28.5582588,40.8901763 L28.75,40.8828125 L51.25,40.8828125 L51.4281176,40.8891658 C53.7621575,41.0558829 55.3347421,42.6284675 55.5014592,44.9625074 L55.5141819,45.140625 L55.5014592,45.3187426 C55.3347421,47.6527825 53.7621575,49.2253671 51.4281176,49.3920842 L51.25,49.3984375 L45.4296875,49.3984375 Z M65.8671875,54.5546875 L67.234375,54.5546875 L67.234375,53.0703125 L65.8671875,53.0703125 L65.8671875,54.5546875 Z M71.4140625,54.0803571 L71.4140625,53.0703125 L71.3415179,53.0703125 L71.3409466,53.0783105 C71.3451794,53.0774957 71.3492453,53.0769434 71.3531324,53.0766658 L71.4247159,54.0788352 L71.53125,54.0636161 L71.53125,53.686942 L71.2986596,53.6703284 L71.2678802,54.1012403 L71.4140625,54.0803571 Z M71.3409466,53.0783105 L71.2986596,53.6703284 L70.7954158,53.6343824 C70.8056045,53.4917405 71.1856176,53.1082136 71.3409466,53.0783105 Z M71.2678802,54.1012403 L71.2359449,54.5483342 C71.152648,54.5423845 70.8239249,54.2342066 70.8141888,54.1660534 L71.2678802,54.1012403 Z M65.8671875,64.5540957 L65.8671875,65.9654985 L67.234375,65.661679 L67.234375,64.1594889 C66.7846343,64.2933723 66.3289046,64.4249093 65.8671875,64.5540957 Z M72.8990632,63.7690191 C72.9237566,63.7627321 72.9416793,63.7591618 72.9525694,63.757674 C72.927323,63.7576447 72.9102642,63.7569283 72.8916134,63.7551839 L72.8990632,63.7690191 Z M72.9525694,63.757674 C72.9554856,63.7572756 72.9578974,63.7570266 72.9598,63.7569147 C72.9543503,63.7572352 72.9486125,63.7574306 72.9425981,63.7574911 Z M72.8916134,63.7551839 C72.839836,63.750341 72.775789,63.7375748 72.7035725,63.7135026 C72.4478324,63.6282559 72.2727395,63.4637739 72.2248695,63.368034 L72.5859375,63.1875 L72.8916134,63.7551839 Z M72.5859375,63.1875 L72.7847377,63.0880999 L72.6607449,62.7643408 L72.3984375,62.8392857 L72.5859375,63.1875 Z M72.3984375,62.8392857 L72.0571276,62.9368028 C72.0453305,62.895513 72.2075493,62.5170027 72.2210004,62.5097598 L72.3984375,62.8392857 Z M60.6401591,65.8594465 C60.596414,65.8691668 60.552624,65.8788693 60.5087891,65.8885541 C60.5382287,65.8997526 60.5737849,65.9161367 60.6133923,65.9387695 C60.6478269,65.9584464 60.6796705,65.9796362 60.7088094,66.0014423 L60.6922719,65.8608735 C60.6463366,65.8662776 60.6060258,65.8697013 60.5714114,65.8715832 L60.8020833,66.7942708 L60.723467,66.1260318 L60.6401591,65.8594465 Z M60.5471241,66.3593038 L60.641193,66.7862317 L60.9234784,66.7660685 L60.7759349,66.2939293 L60.5471241,66.3593038 Z M60.723467,66.1260318 L60.7088094,66.0014423 C60.839035,66.0988968 60.9152369,66.2086604 60.9272474,66.2506972 L60.7759349,66.2939293 L60.723467,66.1260318 Z M60.9234784,66.7660685 L61.0170842,66.7593824 C61.0191722,66.7886135 61.0059315,66.852408 60.9739686,66.9276369 L60.9234784,66.7660685 Z M60.9739686,66.9276369 C60.9514582,66.9806178 60.9196619,67.03927 60.8773942,67.0955143 L60.8875891,67.1362938 C60.9128788,67.1299713 60.9381473,67.1236594 60.9633947,67.1173579 C60.9820862,67.1113275 61.0032166,67.1045502 61.0269375,67.0971374 L60.9739686,66.9276369 Z M61.5256696,53.0703125 L61.453125,53.0703125 L61.453125,54.0803571 L61.5993073,54.1012403 L61.5685279,53.6703284 L61.3359375,53.686942 L61.3359375,54.0636161 L61.4424716,54.0788352 L61.5140551,53.0766658 C61.5179422,53.0769434 61.5220081,53.0774957 61.5262409,53.0783105 L61.5256696,53.0703125 Z M61.5262409,53.0783105 C61.6815699,53.1082136 62.061583,53.4917405 62.0717717,53.6343824 L61.5685279,53.6703284 L61.5262409,53.0783105 Z M61.5993073,54.1012403 L62.0529987,54.1660534 C62.0432626,54.2342066 61.7145395,54.5423845 61.6312426,54.5483342 L61.5993073,54.1012403 Z M70.8671875,58.0703125 L70.8671875,59.1590371 C71.006058,59.1159736 71.1387773,59.0761656 71.265431,59.0395975 C73.5314592,58.3073253 75.6439297,59.0258144 76.6970055,61.131966 L76.8009158,61.3397866 L76.8647474,61.5631972 C77.5015476,63.7919979 76.6362109,65.8111168 74.5914996,66.9121152 L74.4502171,66.9881904 L74.3003682,67.0455794 C70.5068229,68.4984265 66.2479407,69.7439487 61.5223188,70.7851874 L61.4004329,70.8120436 L61.2764781,70.8266265 C58.7963465,71.1184067 56.7904497,69.9721799 56.1196276,67.6243028 L56.0482913,67.3746258 L56.0297908,67.1156176 C55.8634303,64.7865709 57.2408543,63.0418339 59.5355625,62.3247376 L59.6749109,62.2855812 C60.5518568,62.0663448 61.4049974,61.8591377 62.234375,61.6639585 L62.234375,58.0703125 L61.3359375,58.0703125 L61.1578199,58.0639592 C58.82378,57.8972421 57.2511954,56.3246575 57.0844783,53.9906176 L57.0654183,53.7237777 L57.1032513,53.4589466 C57.425489,51.2032824 59.0041995,49.7232413 61.2750074,49.5610408 L61.453125,49.5546875 L71.4140625,49.5546875 L71.5921801,49.5610408 C73.862988,49.7232413 75.4416985,51.2032824 75.7639362,53.4589466 L75.8017692,53.7237777 L75.7827092,53.9906176 C75.6159921,56.3246575 74.0434075,57.8972421 71.7093676,58.0639592 L71.53125,58.0703125 L70.8671875,58.0703125 Z M83.7578125,47.9921875 L74.5243109,47.9921875 L76.3993109,46.7421875 L83.8359375,46.7421875 L83.8359375,47.9921875 L83.7578125,47.9921875 L83.6799918,46.7470561 C83.7447778,46.7430069 83.7780647,46.7379206 83.7806237,46.7388695 C83.6880101,46.7743221 83.5787928,46.842709 83.4744229,46.9470788 C83.2766267,47.144875 83.2109375,47.3337329 83.2109375,47.3671875 L85.7109375,47.3671875 L83.2164746,47.533485 C83.2169155,47.5400982 83.2771455,47.6859193 83.4408873,47.8400292 C83.5750003,47.9662532 83.6466041,47.9925564 83.5628043,47.9873189 L83.71875,45.4921875 L83.71875,47.9921875 L60.28125,47.9921875 L60.28125,47.5 L60.2729837,47.4994489 L60.1640625,49.2421875 L60.1640625,47.4921875 L58.2890625,47.3671875 L60.1640625,47.3671875 L60.1640625,46.7421875 L60.2266902,46.7421875 C60.2249701,46.7415226 60.223257,46.7408703 60.2215512,46.7402306 C60.2137008,46.7372868 60.2256211,46.739165 60.2577131,46.7421875 L60.359375,46.7421875 L60.3638831,46.8143174 C60.3155976,46.7825475 60.2690222,46.7585511 60.2266902,46.7421875 L60.2577131,46.7421875 C60.2735498,46.743679 60.2942988,46.7454492 60.3200082,46.7470561 L60.28125,47.3671875 L60.3984375,47.3671875 L60.4072633,47.5084009 L60.28125,47.5 L60.28125,47.3671875 L60.2729837,47.4994489 L60.1640625,47.4921875 L60.1640625,47.3671875 L60.28125,47.3671875 L60.28125,45.4921875 L60.359375,46.7421875 L76.1102028,46.7421875 L76.2887742,47.9921875 L74.7734375,47.9921875 L74.7734375,45.4921875 C74.7734375,45.2466255 74.7467437,44.9529933 74.6902652,44.6141225 L74.65625,44.4100313 L74.65625,43.1484375 L74.9370117,43.1484375 L75.046875,41.390625 L75.28125,43.1484375 L77.15625,43.1484375 L75.7891606,43.343736 C75.7911939,44.134621 75.8242034,44.7401921 75.8811237,45.1386341 L76.1102028,46.7421875 L76.3993109,46.7421875 L80.3476684,44.1099491 C80.0712068,43.9789711 79.7861226,43.871679 79.489893,43.7866627 C79.775429,43.8683317 80.2752454,43.6800085 80.4082507,43.4805005 L79.5585937,42.9140625 L78.6796875,44.0859375 L79.4330357,42.8303571 L78.328125,42.09375 L79.5435268,42.6462054 L79.9659269,41.9422052 C80.6902676,42.3768096 81.4937178,42.8150552 82.3758465,43.2561195 L82.6565309,43.3964617 L83.25,43.03125 L82.8606198,43.4985062 L91.8479824,47.9921875 L83.8359375,47.9921875 L83.8359375,49.2421875 L83.7578125,47.9921875 Z M74.9370117,43.1484375 L75.28125,43.1484375 L75.3162967,43.411288 L74.9170186,43.4683277 L74.9370117,43.1484375 Z M75.7735046,43.3459726 L75.3162967,43.411288 L75.3772843,43.8686948 C75.4085599,43.8645247 75.7021765,43.5549025 75.7735046,43.3459726 Z M74.9170186,43.4683277 L74.6813763,43.5019909 C74.6865075,43.5379095 74.7558097,43.6742249 74.8964983,43.7966521 L74.9170186,43.4683277 Z M74.8964983,43.7966521 C74.9013344,43.8008604 74.9062548,43.8050523 74.9112598,43.8092232 C75.006751,43.8887992 75.0218723,43.8939404 74.8909293,43.8857564 L74.8964983,43.7966521 Z M60.3638831,46.8143174 L60.3984375,47.3671875 L60.7890625,47.3671875 C60.7890625,47.3337329 60.7233733,47.144875 60.5255771,46.9470788 C60.4718498,46.8933516 60.416838,46.8491596 60.3638831,46.8143174 Z M60.4072633,47.5084009 L60.434703,47.9474363 C60.4624272,47.9245436 60.5058381,47.89017 60.5591127,47.8400292 C60.7228545,47.6859193 60.7830845,47.5400982 60.7835254,47.533485 L60.4072633,47.5084009 Z M60.434703,47.9474363 L60.4371957,47.9873189 C60.3866843,47.9904759 60.3926346,47.9821734 60.434703,47.9474363 Z M80.3476684,44.1099491 L81.3944995,43.4120618 C81.186693,43.5505995 81.0560919,44.2362549 81.1208542,44.3414936 L82.6565309,43.3964617 L82.8606198,43.4985062 L81.649539,44.9518032 C81.2313574,44.6033186 80.8011109,44.3247746 80.3476684,44.1099491 Z M77.4159567,39.4984423 C78.4075444,38.8085277 79.6342452,38.6099541 80.8899278,38.9868151 C82.3248575,39.396795 83.6500701,40.110371 84.850461,41.1106968 L85.1647387,41.3725949 L85.3791458,41.7210064 C85.7652249,42.348385 85.9997248,42.9921269 86.0856369,43.623683 C87.3181734,44.3259817 88.0969365,45.5739322 88.2054004,47.20089 L88.2109375,47.3671875 C88.2109375,49.8946007 86.5266417,51.5788965 83.9918832,51.7373189 L83.8359375,51.7421875 L80.3788556,51.7421875 C80.6468666,53.5211084 80.9303904,55.111193 81.2288037,56.5110795 C81.2504878,56.5925314 81.2721006,56.673127 81.2936408,56.7528642 C82.1805543,55.7911874 83.4913479,55.3394541 85.0098034,55.5563763 L85.2183988,55.595272 C87.4567386,56.111812 88.7204007,57.9019999 88.5542115,60.2268425 C88.2076574,64.4721311 87.403137,67.4857572 85.9547365,69.3733084 C85.0410024,70.6193819 83.6225828,71.1953125 81.9609375,71.1953125 L81.8523444,71.1929529 C78.7611619,71.0585537 76.4283864,68.3200781 74.2529455,63.3051694 C73.0192206,60.2571432 72.0860285,56.4076001 71.4368603,51.7421875 L60.1640625,51.7421875 L60.0081168,51.7373189 C57.4733583,51.5788965 55.7890625,49.8946007 55.7890625,47.3671875 L55.7945996,47.20089 C55.9583757,44.7442488 57.6504202,43.1517363 60.1253043,42.9970561 L60.28125,42.9921875 L70.7959719,42.9921875 C70.9100849,40.7552512 72.4291254,39.2175339 74.7164657,38.9125552 L74.9588089,38.8802428 L75.2028207,38.8954936 C76.0315598,38.9472897 76.7792251,39.1536369 77.4159567,39.4984423 Z M86.0856369,43.623683 C86.2922932,45.142852 85.6392017,46.5915124 84.1680005,47.5723132 L82.78125,45.4921875 L82.78125,42.9921875 L83.71875,42.9921875 L83.8746957,42.9970561 C84.7105403,43.0492963 85.4570926,43.2655388 86.0856369,43.623683 Z M93.6940719,42.4321686 L93.6065422,42.3496364 C93.6322038,42.3752032 93.6591135,42.4085675 93.6855428,42.4492268 L93.6940719,42.4321686 Z M93.6065422,42.3496364 L93.5905971,42.3346017 C93.5958468,42.3392681 93.6011671,42.3442812 93.6065422,42.3496364 Z M93.6855428,42.4492268 C93.7723708,42.5828044 93.8540154,42.7951187 93.8691953,43.0683565 C93.8875669,43.399045 93.8074432,43.6020236 93.764672,43.6554876 L93.2773438,43.265625 L93.6855428,42.4492268 Z M93.2773438,43.265625 L92.9689556,43.0189145 L92.8671862,43.1484391 L93.1796862,43.46094 L93.2773437,43.265625 Z M93.1796862,43.46094 L93.519911,43.8011657 C93.3392771,43.8302496 93.1546609,43.8021029 93.038216,43.7438805 L93.1796862,43.46094 Z M93.519911,43.8011657 L93.5802645,43.8615194 C93.6720998,43.7696843 93.6810274,43.7641046 93.5907156,43.7866826 C93.5672918,43.7925386 93.5436357,43.7973458 93.519911,43.8011657 Z M96.2498739,46.669823 C96.2679094,46.6868823 96.2859768,46.7039852 96.3040759,46.7211317 C96.2862848,46.7034188 96.2695713,46.6843347 96.2538875,46.6640893 L96.2498739,46.669823 Z M96.2538875,46.6640893 C96.0106296,46.3500801 96.0150793,45.756696 96.0885443,45.6669055 L96.637509,46.1160585 L96.2538875,46.6640893 Z M96.637509,46.1160585 L96.8632812,46.3007812 L97.0242599,46.1398026 L96.7973633,45.8876953 L96.637509,46.1160585 Z M96.7973633,45.8876953 L96.3510257,45.3917646 C96.4065845,45.3417617 96.9068316,45.291737 97.1133434,45.4362952 L96.7973633,45.8876953 Z M90.2084929,46.0171851 C88.5439056,44.4886574 88.4405969,42.3066762 89.860328,40.5320124 L89.9468261,40.4238897 L90.0447355,40.3259806 C91.5351028,38.8356175 93.4463857,38.3577954 95.274284,39.2717445 L95.5012612,39.3852331 L95.7008039,39.5420167 C96.861816,40.4542405 98.2065794,41.6360022 99.7912045,43.138483 C101.442789,44.7900679 101.442789,47.0187562 99.9583307,48.8330945 L99.837583,48.9806751 L99.6958493,49.1082354 C98.0777827,50.5644954 96.0150512,50.7707685 94.2460316,49.5324548 L94.0667042,49.4069256 L93.9119205,49.252142 C93.5923901,48.9326115 93.0220267,48.4335435 92.221593,47.7786432 C91.3336687,47.0521597 90.6689027,46.4721596 90.2084929,46.0171851 Z M98.53125,57.8008631 C99.1715669,57.7797138 99.8402299,57.9060854 100.508413,58.1844952 L100.676745,58.2546334 L100.833117,58.3484568 C102.719006,59.4799936 103.318343,61.5177314 102.408729,63.5188824 L102.325075,63.70292 L102.212938,63.8711255 C100.552382,66.3619603 99.0741797,68.2202714 97.7129366,69.490471 C96.2986156,70.7762238 94.8049545,71.4051328 93.2623614,71.0185927 C91.2957757,70.5815736 90.25,68.9548114 90.25,66.9375 L90.25,54.488349 C88.5564843,53.9516923 87.671875,52.3633187 87.671875,50.4140625 C87.671875,48.2195249 88.8960049,46.5057431 91.0949907,46.2858445 L91.2190609,46.2734375 L94.625,46.2734375 C96.8969958,46.2734375 98.53125,47.7715039 98.53125,50.0625 L98.53125,57.8008631 Z M104.078125,47.25 L105.5625,47.25 L105.5625,46.078125 C105.5625,47.1463353 104.59946,48.109375 103.53125,48.109375 L106.578125,48.109375 L106.578125,44.75 L103.0625,44.75 L103.0625,47.25 L106.578125,47.25 L106.578125,45.609375 L104.078125,45.609375 L104.078125,47.25 Z M109.976562,44.75 L109.976562,48.109375 L113.023438,48.109375 C111.877102,48.109375 110.875,47.1072732 110.875,45.9609375 L110.875,47.25 L112.476562,47.25 L112.476562,45.609375 L109.976562,45.609375 L109.976562,47.25 L113.375,47.25 L113.375,44.75 L109.976562,44.75 Z M106.578125,52.9140625 L106.578125,49.5546875 L103.53125,49.5546875 C103.868684,49.5546875 104.260967,49.6527576 104.679687,49.9667973 C105.267597,50.4077297 105.5625,51.0712671 105.5625,51.703125 L105.5625,50.4140625 L104.078125,50.4140625 L104.078125,52.0546875 L106.578125,52.0546875 L106.578125,50.4140625 L103.0625,50.4140625 L103.0625,52.9140625 L106.578125,52.9140625 Z M112.476562,50.4140625 L110.875,50.4140625 L110.875,51.703125 C110.875,50.5567893 111.877102,49.5546875 113.023438,49.5546875 L109.976562,49.5546875 L109.976562,52.9140625 L113.375,52.9140625 L113.375,50.4140625 L109.976562,50.4140625 L109.976562,52.0546875 L112.476562,52.0546875 L112.476562,50.4140625 Z M102.293027,39.9453125 L114.3125,39.9453125 C117.227855,39.9453125 119.15625,41.7772878 119.15625,44.671875 L119.15625,53.109375 L119.150713,53.2756725 C119.116943,53.7822268 119.01934,54.2537135 118.863923,54.6841157 C119.679811,55.4402327 120.09375,56.5970469 120.09375,57.9140625 L120.086386,58.1058037 C119.932697,60.1037659 118.877944,61.6613695 116.975219,61.9995064 C117.175858,62.1917617 117.385335,62.38914 117.603704,62.591608 L119.009954,63.997858 C120.625205,65.6131086 120.373138,67.75568 118.866048,69.4302243 L118.766295,69.541061 L118.654074,69.6392542 C117.185357,70.9243818 115.296507,71.0293179 113.612198,70.0187323 L113.510716,69.9578431 L113.41544,69.8876396 C113.09015,69.6479522 112.76107,69.3863763 112.427959,69.1028661 C112.090886,71.1667613 110.375775,72.25 108.21875,72.25 L108.027009,72.2426362 C106.036723,72.0895373 104.510266,70.9811857 104.148524,69.1080625 C103.845749,69.3924969 103.53222,69.6800514 103.207925,69.9707986 L103.039062,70.109375 C101.251274,71.4502165 99.1513534,71.5415173 97.3733208,70.2484027 L97.2146844,70.1330308 L97.075983,69.9943295 C95.3184184,68.2367648 95.3184184,65.8726102 97.075983,64.1150455 L97.544733,63.6462955 L97.6811922,63.5196405 C98.2858953,62.9989239 98.8401796,62.5035203 99.3435196,62.0349213 C97.2444569,61.8022392 95.9293044,60.2394271 95.7651739,58.1058109 L95.7504235,57.9140625 L95.7651739,57.7223141 C95.8738933,56.3090149 96.5051177,55.1638717 97.5230641,54.4755579 C97.3383825,53.8757411 97.2542402,53.2029053 97.28125,52.4724712 L97.28125,44.8418457 C97.1643072,41.7595586 99.1896685,39.8310758 102.293027,39.9453125 Z M124.662407,61.6429234 C124.662074,61.6442693 124.66175,61.6455997 124.661435,61.6469147 C124.662075,61.6442473 124.662786,61.6398786 124.663437,61.6337909 Z M134.148777,46.741018 C135.249195,47.418009 135.917769,48.6240455 136.031699,50.1051338 L136.046448,50.296875 L136.031699,50.4886162 C135.916185,51.9902985 135.210769,53.1892379 134.078337,53.8591042 C134.791348,54.710866 135.272045,55.337031 135.541871,55.7687526 L135.604823,55.8694769 L135.657943,55.975716 C136.495273,57.6503766 136.295593,59.4474994 135.068942,60.8493865 L134.959191,60.974816 L134.833762,61.0845667 C134.101713,61.7251093 133.26434,62.0810355 132.40625,62.131829 L132.40625,68.10559 L132.395983,68.2185269 C132.204343,70.326568 130.701415,71.7138862 128.590426,71.8898019 L128.382812,71.8984375 C126.146969,71.8984375 124.455521,70.5694421 124.252454,68.3357144 L124.242188,68.2227775 L124.242188,65.3867786 C123.336658,65.5119325 122.385107,65.309612 121.477039,64.7492072 C119.439863,63.5735714 119.235042,61.3926077 120.25798,59.2005988 L120.444234,58.8014819 L120.599932,58.6457842 L120.61408,58.6200106 C121.409685,57.294002 122.098314,55.8512814 122.679113,54.2902491 C120.854999,53.8025092 119.789062,52.219869 119.789062,50.1796875 L119.789062,49.9727812 L119.823078,49.76869 C119.99387,48.7439383 120.443728,47.8905089 121.108612,47.2699172 C120.637403,46.7213018 120.312139,46.025052 120.17464,45.20006 L120.140625,44.9959688 L120.140625,44.7890625 C120.140625,42.5739247 121.58786,41.0153635 123.78392,40.6775083 L123.918965,40.6567321 L124.055469,40.6507971 C125.694575,40.5795317 127.951266,40.2465773 130.797474,39.6473755 L130.932357,39.6228208 C133.025977,39.3007254 134.848036,40.1581647 135.625879,42.1027733 L135.726245,42.3536871 L135.770672,42.6202525 C136.053611,44.3178842 135.434633,45.7967262 134.148777,46.741018 Z M131.273438,45.1892779 C131.1595,41.9559765 133.256256,39.9508161 136.515749,40.0625 L145.512119,40.0625 C148.723361,39.8360184 150.801609,41.8403332 150.6875,45.0721428 L150.6875,49.0343155 C150.907751,52.3472338 148.989519,54.5556036 145.743034,54.3203125 L136.351562,54.3203125 C134.637353,54.3203125 133.400561,54.0454699 132.474421,53.1193295 C131.54828,52.193189 131.273438,50.9563974 131.273438,49.2421875 L131.273438,45.1892779 Z M137.40625,45.84375 L137.40625,48.5390625 L137.471354,48.34375 L144.606771,48.34375 L144.671875,48.5390625 L144.671875,45.84375 L144.574219,46.0390625 L137.503906,46.0390625 L137.40625,45.84375 Z M137.471354,48.34375 L137.945312,46.921875 L137.503906,46.0390625 L137.40625,46.0390625 L137.40625,48.34375 L137.471354,48.34375 Z M138.02567,46.6808036 L138.1875,46.1953125 L137.054688,46.1953125 L138.02567,46.6808036 Z M144.606771,48.34375 L144.671875,48.34375 L144.671875,46.0390625 L144.574219,46.0390625 L144.132813,46.921875 L144.606771,48.34375 Z M144.052455,46.6808036 L145.023438,46.1953125 L143.890625,46.1953125 L144.052455,46.6808036 Z M140.179688,55.84375 L141.898438,55.84375 L141.898438,54.0078125 L140.179688,54.0078125 L140.179688,55.84375 Z M147.345881,55.0056818 L147.276761,55.8351144 C146.997458,55.8118391 146.539723,55.354105 146.516448,55.0748012 L147.345881,55.0056818 Z M147.336946,54.7386593 L146.515176,54.6754463 C146.528533,54.5018093 146.954271,54.0433223 147.276761,54.0164481 L147.336946,54.7386593 Z M140.179688,59.6328125 L140.179688,61.5859375 L141.898438,61.5859375 L141.898438,59.6328125 L140.179688,59.6328125 Z M147.099714,60.7390864 L147.023661,61.5756705 C146.869692,61.5616734 146.623016,61.4528463 146.409087,61.2210893 C146.230095,61.0271821 146.168931,60.8655322 146.164886,60.8169887 L147.099714,60.7390864 Z M147.099714,60.4796636 L146.164886,60.4017613 C146.168931,60.3532178 146.230095,60.1915679 146.409087,59.9976607 C146.623016,59.7659037 146.869692,59.6570766 147.023661,59.6430795 L147.099714,60.4796636 Z M140.179688,65.84375 L140.179688,67.6796875 L141.898438,67.6796875 L141.898438,65.84375 L140.179688,65.84375 Z M148.762097,66.8505544 L148.698884,67.6723237 C148.525247,67.658967 148.06676,67.2332291 148.039886,66.9107387 L148.762097,66.8505544 Z M148.753906,66.5664063 L148.038614,66.5113838 C148.055061,66.2975656 148.485066,65.8675613 148.698884,65.8511138 L148.753906,66.5664062 Z M133.675781,66.5664062 L133.730804,65.8511138 C133.944622,65.8675613 134.374626,66.2975656 134.391074,66.5113838 L133.675781,66.5664062 Z M133.667591,66.8505544 L134.389802,66.9107387 C134.362928,67.2332291 133.904441,67.658967 133.730804,67.6723237 L133.667591,66.8505544 Z M135.226956,60.4882484 L135.311259,59.6452195 C135.814802,59.6955738 136.248684,60.208343 136.264802,60.4017613 L135.226956,60.4882484 Z M135.226956,60.7305016 L136.264802,60.8169887 C136.248684,61.010407 135.814802,61.5231762 135.311259,61.5735305 L135.226956,60.7305016 Z M134.766276,54.0078125 L134.710938,54.0078125 L134.710938,55.21875 L134.792459,54.3220109 L134.766276,54.0078125 Z M134.59375,54.7590144 L134.59375,54.984375 L134.849432,55.0056818 L134.827379,54.741043 L134.59375,54.7590144 Z M134.792459,54.3220109 L134.820089,54.0180795 C135.255213,54.0576362 135.669821,54.5413451 135.680136,54.6754463 L134.827379,54.741043 L134.792459,54.3220109 Z M134.849432,55.0056818 L135.678864,55.0748012 C135.655589,55.354105 135.197855,55.8118391 134.918551,55.8351144 L134.849432,55.0056818 Z M150.190239,57.9508984 C150.732169,58.5951476 151.067021,59.434642 151.147614,60.4017613 L151.164916,60.609375 L151.147614,60.8169887 C151.07888,61.6417969 150.82521,62.3737767 150.415871,62.9709815 C151.895413,63.5164737 152.879151,64.7739529 153.022614,66.4955113 L153.03925,66.6951378 L153.023886,66.8948662 C152.851188,69.1399445 151.327445,70.6636879 149.082366,70.8363862 L148.890625,70.84375 L133.539062,70.84375 L133.347321,70.8363862 C131.102243,70.6636879 129.5785,69.1399445 129.405801,66.8948662 L129.390438,66.6951378 L129.407073,66.4955113 C129.549972,64.780724 130.526549,63.5263724 131.996382,62.9774509 C131.595928,62.3752038 131.35055,61.6387119 131.282073,60.8169887 L131.264772,60.609375 L131.282073,60.4017613 C131.356756,59.5055624 131.64186,58.7107446 132.109071,58.0808924 C131.288029,57.3753976 130.791583,56.3162768 130.694864,55.0589287 L130.6795,54.8592003 L130.696136,54.6595738 C130.875662,52.5052607 132.349011,51.0319117 134.503324,50.8523856 L134.710938,50.84375 L147.484375,50.84375 L147.691989,50.8523856 C149.846302,51.0319117 151.319651,52.5052607 151.499177,54.6595738 L151.515812,54.8592003 L151.500449,55.0589287 C151.408694,56.2517409 150.944747,57.2535405 150.190239,57.9508984 Z" id="正式课程" stroke="#FFFFFF" stroke-width="5" fill="#FF9A00" fill-rule="nonzero" stroke-linejoin="round"></path>
                <text id="正式课程" font-family="FZY4JW--GB1-0, FZCuYuan-M03S" font-size="30" font-weight="normal" line-spacing="42" letter-spacing="2" fill="#FF8800">
                    <tspan x="25" y="56">正式课程</tspan>
                </text>
                <text id="搭配教具" font-family="FZY4JW--GB1-0, FZCuYuan-M03S" font-size="24" font-weight="normal" line-spacing="42" letter-spacing="1.6" fill="#FF8800">
                    <tspan x="38.3" y="93">搭配教具</tspan>
                </text>
                <path d="M153.281943,-5.17920154e-17 L164,0 C170.627417,-1.21743675e-15 176,5.372583 176,12 L176,22.7180574 C176,23.1638168 175.953587,23.3254599 175.866434,23.4884229 C175.77928,23.6513858 175.651386,23.7792801 175.488423,23.8664336 C175.32546,23.9535872 175.163817,24 174.718057,24 L164,24 C157.372583,24 152,18.627417 152,12 L152,1.2819426 C152,0.83618323 152.046413,0.674540111 152.133566,0.511577148 C152.22072,0.348614185 152.348614,0.220719898 152.511577,0.133566352 C152.67454,0.0464128056 152.836183,3.00926524e-17 153.281943,-5.17920154e-17 Z" id="矩形" fill="#FF8800"></path>
                <path d="M153.281943,123 L164,123 C170.627417,123 176,128.372583 176,135 L176,145.718057 C176,146.163817 175.953587,146.32546 175.866434,146.488423 C175.77928,146.651386 175.651386,146.77928 175.488423,146.866434 C175.32546,146.953587 175.163817,147 174.718057,147 L164,147 C157.372583,147 152,141.627417 152,135 L152,124.281943 C152,123.836183 152.046413,123.67454 152.133566,123.511577 C152.22072,123.348614 152.348614,123.22072 152.511577,123.133566 C152.67454,123.046413 152.836183,123 153.281943,123 Z" id="矩形复制-2" fill="#FF8800" transform="translate(164.000000, 135.000000) scale(1, -1) translate(-164.000000, -135.000000) "></path>
                <path d="M3.2819426,-5.17920154e-17 L14,0 C20.627417,-1.21743675e-15 26,5.372583 26,12 L26,22.7180574 C26,23.1638168 25.9535872,23.3254599 25.8664336,23.4884229 C25.7792801,23.6513858 25.6513858,23.7792801 25.4884229,23.8664336 C25.3254599,23.9535872 25.1638168,24 24.7180574,24 L14,24 C7.372583,24 2,18.627417 2,12 L2,1.2819426 C2,0.83618323 2.04641281,0.674540111 2.13356635,0.511577148 C2.2207199,0.348614185 2.34861419,0.220719898 2.51157715,0.133566352 C2.67454011,0.0464128056 2.83618323,3.00926524e-17 3.2819426,-5.17920154e-17 Z" id="矩形复制" fill="#FF8800" transform="translate(14.000000, 12.000000) scale(-1, 1) translate(-14.000000, -12.000000) "></path>
                <path d="M3.2819426,123 L14,123 C20.627417,123 26,128.372583 26,135 L26,145.718057 C26,146.163817 25.9535872,146.32546 25.8664336,146.488423 C25.7792801,146.651386 25.6513858,146.77928 25.4884229,146.866434 C25.3254599,146.953587 25.1638168,147 24.7180574,147 L14,147 C7.372583,147 2,141.627417 2,135 L2,124.281943 C2,123.836183 2.04641281,123.67454 2.13356635,123.511577 C2.2207199,123.348614 2.34861419,123.22072 2.51157715,123.133566 C2.67454011,123.046413 2.83618323,123 3.2819426,123 Z" id="矩形复制-3" fill="#FF8800" transform="translate(14.000000, 135.000000) scale(-1, -1) translate(-14.000000, -135.000000) "></path>
                <path d="M13,12 L147,12" id="直线-2" stroke-opacity="0.5" stroke="#FF8800" stroke-width="4" stroke-linecap="round" stroke-linejoin="round" stroke-dasharray="10,13"></path>
                <path d="M164,33.4264571 L164,129.994989" id="直线-2复制-3" stroke-opacity="0.5" stroke="#FF8800" stroke-width="4" stroke-linecap="round" stroke-linejoin="round" stroke-dasharray="10,13"></path>
                <path d="M13,33.4264571 L13,129.994989" id="直线-2复制-4" stroke-opacity="0.5" stroke="#FF8800" stroke-width="4" stroke-linecap="round" stroke-linejoin="round" stroke-dasharray="10,13"></path>
                <path d="M14,137 L148,137" id="直线-2复制" stroke-opacity="0.5" stroke="#FF8800" stroke-width="4" stroke-linecap="round" stroke-linejoin="round" stroke-dasharray="10,13"></path>
            </g>
        </g>
    </g>
</svg>